<svg width="229" height="220" viewBox="0 0 229 220" fill="none" xmlns="http://www.w3.org/2000/svg">
<rect x="36.5474" y="213.776" width="91" height="10" rx="5" transform="rotate(-52 36.5474 213.776)" fill="black"/>
<rect width="91" height="10" rx="5" transform="matrix(0.615661 0.788011 0.788011 -0.615661 137.547 144.224)" fill="black"/>
<path d="M114.5 208C174.593 208 224 162.924 224 106.5C224 50.0756 174.593 5 114.5 5C54.4072 5 5 50.0756 5 106.5C5 162.924 54.4072 208 114.5 208Z" fill="#537EC0" stroke="black" stroke-width="10"/>
<g filter="url(#filter0_i_1_10)">
<ellipse cx="114" cy="106" rx="82" ry="76" fill="#D9D9D9"/>
</g>
<path d="M191 106C191 144.861 156.89 177 114 177C71.1095 177 37 144.861 37 106C37 67.1388 71.1095 35 114 35C156.89 35 191 67.1388 191 106Z" stroke="black" stroke-width="10"/>
<defs>
<filter id="filter0_i_1_10" x="32" y="30" width="168" height="156" filterUnits="userSpaceOnUse" color-interpolation-filters="sRGB">
<feFlood flood-opacity="0" result="BackgroundImageFix"/>
<feBlend mode="normal" in="SourceGraphic" in2="BackgroundImageFix" result="shape"/>
<feColorMatrix in="SourceAlpha" type="matrix" values="0 0 0 0 0 0 0 0 0 0 0 0 0 0 0 0 0 0 127 0" result="hardAlpha"/>
<feOffset dx="20" dy="20"/>
<feGaussianBlur stdDeviation="2"/>
<feComposite in2="hardAlpha" operator="arithmetic" k2="-1" k3="1"/>
<feColorMatrix type="matrix" values="0 0 0 0 0 0 0 0 0 0 0 0 0 0 0 0 0 0 0.74 0"/>
<feBlend mode="normal" in2="shape" result="effect1_innerShadow_1_10"/>
</filter>
</defs>
</svg>
